<svg xmlns="http://www.w3.org/2000/svg" width="1333.214" height="195" viewBox="0 0 1333.214 195"><defs><style>.a{fill:#fff;}</style></defs><g transform="translate(-15 -457)"><path class="a" d="M69,0a69,69,0,0,1,0,138V0Z" transform="translate(-54 472)"/><circle class="a" cx="58.5" cy="58.5" r="58.5" transform="translate(34 498)"/><circle class="a" cx="65" cy="65" r="65" transform="translate(166 461)"/><circle class="a" cx="65" cy="65" r="65" transform="translate(270 480)"/><circle class="a" cx="65" cy="65" r="65" transform="translate(341 522)"/><circle class="a" cx="65" cy="65" r="65" transform="translate(426 494)"/><circle class="a" cx="65" cy="65" r="65" transform="translate(510 480)"/><circle class="a" cx="65" cy="65" r="65" transform="translate(575 515)"/><circle class="a" cx="65" cy="65" r="65" transform="translate(673 501)"/><circle class="a" cx="65" cy="65" r="65" transform="translate(773 483)"/><circle class="a" cx="65" cy="65" r="65" transform="translate(838 522)"/><circle class="a" cx="65" cy="65" r="65" transform="translate(903 516)"/><circle class="a" cx="65" cy="65" r="65" transform="translate(964 499)"/><circle class="a" cx="65" cy="65" r="65" transform="translate(1033 457)"/><circle class="a" cx="65" cy="65" r="65" transform="translate(1098 483)"/><circle class="a" cx="65" cy="65" r="65" transform="translate(1182 483)"/><path class="a" d="M65,0c0,69.053.482,45.573,0,65s0,29.337,0,65A65,65,0,0,1,0,65C0,29.1,36.069,0,65,0Z" transform="translate(1283 472)"/><circle class="a" cx="65" cy="65" r="65" transform="translate(107 498)"/></g></svg>