<svg xmlns="http://www.w3.org/2000/svg" width="182" height="123.093" viewBox="0 0 182 123.093">
  <g id="logo-footer" transform="translate(-351.911 -76.76)">
    <path id="Path_7" data-name="Path 7" d="M362.5,134.472V79.3h20.652c11.08,0,21.431,5.6,21.431,18.466v18.541c0,12.713-10.376,18.165-21.431,18.165Zm21.129-13.09c3.819,0,6.934-2.11,6.934-5.075V97.766c0-3.04-3.115-5.452-6.934-5.452h-7.085v29.068Z" transform="translate(0.688 -2.439)" fill="#fff"/>
    <path id="Path_8" data-name="Path 8" d="M566.794,79.3v36.706c0,8.894,15.753,8.894,15.828,0V79.3h14.12v36.706c-.076,25.878-44.117,25.878-44.042,0V79.3Z" transform="translate(-141.726 -2.439)" fill="#fff"/>
    <path id="Path_9" data-name="Path 9" d="M786.795,104.778a13.986,13.986,0,0,1,7.788,15.125c-1.407,8.894-7.411,14.27-19.647,14.27H752.4V78.9h22.134c10.527,0,18.24,6.381,17.939,16.908A11.034,11.034,0,0,1,786.795,104.778Zm-12.235-4.2c6.784,0,7.01-9.9,0-9.9h-8.115v9.9Zm-8.115,10.05v11.306h8.115c8.417,0,8.266-11.306,0-11.306Z" transform="translate(-291.254 -2.139)" fill="#fff"/>
    <path id="Path_10" data-name="Path 10" d="M942.4,79.3h13.944v55.2H942.4Z" transform="translate(-433.519 -2.439)" fill="#fff"/>
    <path id="Path_11" data-name="Path 11" d="M1067.13,120.843a22.179,22.179,0,0,1-19.873,12.386c-10.828,0-21.757-6.306-21.757-18.868V95.568c0-12.461,10.9-18.868,21.983-18.868,6.784,0,14.974,2.889,19.421,12.713l-11.381,4.6c-3.743-6.859-16.055-5.3-16.055,1.558v18.793c0,6.633,12.462,8.492,15.5.854Z" transform="translate(-673.589 66.6)" fill="#f14b6a"/>
    <path id="Path_12" data-name="Path 12" d="M1205.47,79.3h12.713l19.722,55.2h-14.974l-3.593-11.08h-14.723l-3.442,11.08H1186.2Zm5.929,15.577-3.668,16.129H1216L1212.4,94.877Z" transform="translate(-793.914 64.653)" fill="#f14b6a"/>
    <path id="Path_13" data-name="Path 13" d="M1451.934,134.472h-17.385l-13.642-17.536h-2.487v17.536H1404.3V79.3h22.058c11.381,0,20.2,5.226,20.5,18.165,0,10.2-4.12,15.979-10.828,18.089Zm-25.325-29.546a6.325,6.325,0,1,0,0-12.637h-8.19v12.637Z" transform="translate(-957.22 64.653)" fill="#f14b6a"/>
    <path id="Path_14" data-name="Path 14" d="M1596.893,114.615c5.528,6.708,17.687,7.009,18.089,1.08.151-3.115-4.9-4.9-9.421-5.527-8.894-1.407-17.159-7.01-16.983-17.536.628-10.828,9.823-16.531,19.948-16.531,6.708,0,13.164,1.859,18.868,8.818l-9.12,7.01c-5.779-6.155-15.677-5.929-15.9.477.151,2.638,3.04,4.221,7.336,5.15,9.824,1.784,19.647,5.075,19.019,18.793-.929,10.678-11.682,16.456-21.832,16.456-6.633,0-13.642-3.266-18.793-9.9Z" transform="translate(-1094.842 67.049)" fill="#f14b6a"/>
  </g>
</svg>
